#!OML:ASF X:\für Bonn\!DataBase\2005_08_11_Bastian_Final\c3d\Bastian.ASF
:FULLY-SPECIFIED
:DEGREES
286
root 1.57333 17.3052 5.61894 169.332 -7.99972 -174.796
lowerback 19.6772 -1.7927 1.92421
upperback 7.11851 -3.17895 1.41314
thorax -3.31153 -2.09644 1.13837
lowerneck -7.94803 -6.78435 0.301306
upperneck -12.3217 -10.0282 13.1915
head -1.89593 -6.0222 4.19882
rclavicle -1.71949e-014 1.25234e-014
rhumerus -47.8165 -5.89285 -74.5164
rradius 48.4377
rwrist -277.084
rhand 3.53879 -9.20056
rfingers 7.12502
rthumb 28.9753 -396.969
lclavicle -1.71949e-014 1.25234e-014
lhumerus 311.004 26.6284 -304.922
lradius 22.8596
lwrist -200.159
lhand -31.5058 7.1791
lfingers 7.12502
lthumb -4.77157 37.1054
rfemur -22.897 -8.3096 29.0722
rtibia 41.4421
rfoot -12.0926 -15.1908
rtoes -3.56314
lfemur 9.87639 4.4528 -13.7372
ltibia 25.2752
lfoot -17.9336 -1.83004
ltoes -6.99858
287
root 1.59498 17.3071 5.71376 169.36 -7.49644 -174.802
lowerback 19.5961 -1.76798 2.04749
upperback 7.18319 -3.14535 1.37704
thorax -3.20763 -2.0847 1.01646
lowerneck -8.02653 -6.65726 0.226239
upperneck -12.2579 -9.86295 13.1647
head -1.87008 -5.9329 4.20083
rclavicle 3.51849e-014 -2.48481e-014
rhumerus -47.6033 -6.01902 -74.7517
rradius 49.1276
rwrist -276.773
rhand 3.29148 -9.19809
rfingers 7.12502
rthumb 28.739 -397.006
lclavicle 3.51849e-014 -2.48481e-014
lhumerus 312.205 25.5345 -303.386
lradius 23.0985
lwrist -198.112
lhand -30.9984 6.66334
lfingers 7.12502
lthumb -4.28156 36.6001
rfemur -22.6559 -9.0198 28.985
rtibia 42.8305
rfoot -11.9991 -15.1285
rtoes -1.35534
lfemur 9.30704 4.58903 -13.7455
ltibia 25.8312
lfoot -17.9372 -1.50188
ltoes -6.79432
288
root 1.61585 17.3069 5.80634 169.393 -7.01372 -174.806
lowerback 19.4647 -1.75461 2.17992
upperback 7.24759 -3.12463 1.34866
thorax -3.07789 -2.07822 0.897844
lowerneck -8.10826 -8.61166 0.427865
upperneck -11.7845 -9.25439 13.4077
head -1.73635 -4.20754 4.20111
rclavicle 8.24956e-015 -1.98785e-015
rhumerus -47.3649 -6.11229 -74.9891
rradius 49.8131
rwrist -276.351
rhand 2.99242 -9.19343
rfingers 7.12502
rthumb 28.4533 -397.05
lclavicle 8.24956e-015 -1.98785e-015
lhumerus 313.378 24.4821 -301.918
lradius 23.3369
lwrist -196.079
lhand -30.4012 6.33349
lfingers 7.12502
lthumb -3.70491 36.281
rfemur -22.3495 -9.61273 28.83
rtibia 44.2121
rfoot -11.734 -14.8839
rtoes -0.057744
lfemur 8.71806 4.66977 -13.7626
ltibia 26.4391
lfoot -17.9855 -1.16982
ltoes -6.5124
289
root 1.6368 17.3052 5.89761 169.403 -6.54102 -174.796
lowerback 19.3414 -1.73567 2.33732
upperback 7.31235 -3.09266 1.32045
thorax -2.95263 -2.0658 0.763512
lowerneck -8.14164 -8.4786 0.379176
upperneck -11.749 -9.08553 13.3457
head -1.73121 -4.12136 4.1907
rclavicle 4.97459e-014 -1.31198e-014
rhumerus -47.1119 -6.24375 -75.2527
rradius 50.5044
rwrist -275.771
rhand 2.76863 -9.25086
rfingers 7.12502
rthumb 28.2394 -397.143
lclavicle 4.97459e-014 -1.31198e-014
lhumerus 314.506 23.4424 -300.551
lradius 23.5973
lwrist -194.079
lhand -29.7415 6.27431
lfingers 7.12502
lthumb -3.0678 36.232
rfemur -21.9472 -10.0799 28.6185
rtibia 45.5593
rfoot -11.3686 -14.5622
rtoes -0.0288896
lfemur 8.12501 4.75711 -13.7584
ltibia 27.0932
lfoot -18.041 -0.849678
ltoes -6.2487
290
root 1.65764 17.3005 5.98728 169.425 -6.0865 -174.799
lowerback 19.191 -1.72354 2.48755
upperback 7.36536 -3.0681 1.28534
thorax -2.82599 -2.05496 0.626727
lowerneck -8.20616 -8.34305 0.397131
upperneck -11.6599 -8.93203 13.2287
head -1.70782 -4.04401 4.1449
rclavicle -1.59525e-014 2.32578e-014
rhumerus -46.8702 -6.31755 -75.551
rradius 51.2051
rwrist -275.224
rhand 2.46681 -9.32157
rfingers 7.12502
rthumb 27.9509 -397.261
lclavicle -1.59525e-014 2.32578e-014
lhumerus 315.509 23.0612 -299.742
lradius 23.6888
lwrist -192.78
lhand -29.1771 6.47181
lfingers 7.12502
lthumb -2.5228 36.4366
rfemur -21.4691 -10.2744 28.282
rtibia 46.853
rfoot -11.1322 -14.2552
rtoes 0.150607
lfemur 7.5123 4.80522 -13.7718
ltibia 27.7802
lfoot -18.1561 -0.533141
ltoes -5.95094
291
root 1.67822 17.2943 6.07572 169.436 -5.6543 -174.781
lowerback 19.0402 -1.71424 2.67085
upperback 7.40677 -3.03892 1.25399
thorax -2.71231 -2.04015 0.474935
lowerneck -8.22958 -8.20249 0.393017
upperneck -11.5802 -8.76508 13.1457
head -1.69261 -3.961 4.11786
rclavicle -3.72721e-014 1.8487e-014
rhumerus -46.6312 -6.37078 -75.8803
rradius 51.8872
rwrist -274.744
rhand 2.16189 -9.46239
rfingers 7.12502
rthumb 27.6594 -397.449
lclavicle -3.72721e-014 1.8487e-014
lhumerus 316.437 22.8059 -299.081
lradius 23.8141
lwrist -191.575
lhand -28.6694 6.82848
lfingers 7.12502
lthumb -2.03244 36.7985
rfemur -20.9133 -10.3941 27.9209
rtibia 48.0736
rfoot -10.9277 -13.9057
rtoes -0.0050746
lfemur 6.88569 4.88657 -13.7442
ltibia 28.5167
lfoot -18.274 -0.272886
ltoes -5.74271
292
root 1.6974 17.2865 6.16224 169.435 -5.22871 -174.749
lowerback 18.9048 -1.70705 2.86255
upperback 7.42811 -3.00689 1.24024
thorax -2.62702 -2.0228 0.338148
lowerneck -8.23623 -8.06346 0.439766
upperneck -11.4886 -8.61543 12.9794
head -1.68146 -3.89102 4.05224
rclavicle 7.60351e-015 -3.18055e-015
rhumerus -46.4012 -6.38833 -76.198
rradius 52.5467
rwrist -274.218
rhand 1.81808 -9.60312
rfingers 7.12502
rthumb 27.3306 -397.642
lclavicle 7.60351e-015 -3.18055e-015
lhumerus 317.284 22.7153 -298.542
lradius 23.9568
lwrist -190.472
lhand -28.2549 7.16569
lfingers 7.12502
lthumb -1.63212 37.1392
rfemur -20.2867 -10.4679 27.5314
rtibia 49.2166
rfoot -10.7772 -13.4261
rtoes 0.0876951
lfemur 6.26877 4.87449 -13.7297
ltibia 29.2793
lfoot -18.456 0.0524431
ltoes -5.27042
293
root 1.7138 17.2771 6.24844 169.451 -4.8255 -174.67
lowerback 18.7899 -1.73359 3.14174
upperback 7.39901 -2.99241 1.22134
thorax -2.60979 -2.00912 0.153334
lowerneck -8.22353 -7.90642 0.517082
upperneck -11.3532 -8.45265 12.7952
head -1.6619 -3.81676 3.97458
rclavicle 0 -1.8487e-014
rhumerus -46.2139 -6.34748 -76.5615
rradius 53.196
rwrist -273.796
rhand 1.47195 -9.78764
rfingers 7.12502
rthumb 26.9995 -397.878
lclavicle 0 -1.8487e-014
lhumerus 318.022 22.7873 -298.162
lradius 24.1276
lwrist -189.503
lhand -27.922 7.49514
lfingers 7.12502
lthumb -1.31053 37.4709
rfemur -19.6013 -10.4556 27.1583
rtibia 50.278
rfoot -10.7909 -13.0082
rtoes 0.543506
lfemur 5.6179 4.82384 -13.6865
ltibia 30.0625
lfoot -18.6466 0.399241
ltoes -5.14458
294
root 1.72873 17.2661 6.33319 169.431 -4.4491 -174.568
lowerback 18.7176 -1.76409 3.47198
upperback 7.35483 -2.97115 1.20903
thorax -2.63156 -1.9915 -0.0518702
lowerneck -8.2198 -7.7637 0.618257
upperneck -11.1928 -8.32006 12.5687
head -1.63307 -3.75851 3.87579
rclavicle -6.4605e-016 1.2921e-014
rhumerus -46.0449 -6.26601 -76.932
rradius 53.8193
rwrist -273.424
rhand 1.10853 -10.05
rfingers 7.12502
rthumb 26.6517 -398.194
lclavicle -6.4605e-016 1.2921e-014
lhumerus 318.717 22.8677 -297.795
lradius 24.3535
lwrist -188.471
lhand -27.6468 7.72662
lfingers 7.12502
lthumb -1.04475 37.7038
rfemur -18.7833 -10.4397 26.7707
rtibia 51.2581
rfoot -10.9512 -12.6943
rtoes 1.24964
lfemur 5.00782 4.72201 -13.6268
ltibia 30.8542
lfoot -18.865 0.760857
ltoes -4.92265
295
root 1.74426 17.2537 6.41664 169.412 -4.08181 -174.475
lowerback 18.6607 -1.7931 3.75209
upperback 7.28315 -2.95009 1.23567
thorax -2.68657 -1.97443 -0.185907
lowerneck -8.1741 -7.61861 0.606166
upperneck -11.0174 -8.18275 12.3729
head -1.59952 -3.69769 3.80949
rclavicle 1.38652e-014 1.15295e-014
rhumerus -45.8925 -6.04091 -77.2633
rradius 54.4459
rwrist -273.115
rhand 0.777254 -10.2848
rfingers 7.12502
rthumb 26.3346 -398.476
lclavicle 1.38652e-014 1.15295e-014
lhumerus 319.349 23.0656 -297.438
lradius 24.5852
lwrist -187.436
lhand -27.3936 7.88263
lfingers 7.12502
lthumb -0.800198 37.8609
rfemur -17.8719 -10.3637 26.3521
rtibia 52.1438
rfoot -11.2161 -12.5814
rtoes 1.93909
lfemur 4.40414 4.59299 -13.5754
ltibia 31.6339
lfoot -19.0663 1.10504
ltoes -4.51931
296
root 1.76057 17.241 6.49969 169.398 -3.7422 -174.393
lowerback 18.6069 -1.80762 4.01272
upperback 7.19788 -2.90968 1.28303
thorax -2.75503 -1.94791 -0.290511
lowerneck -8.16751 -7.49079 0.63215
upperneck -10.8201 -8.08198 12.1027
head -1.55453 -3.65524 3.70732
rclavicle -4.92986e-014 2.38542e-014
rhumerus -45.7648 -5.84819 -77.5544
rradius 55.0961
rwrist -272.789
rhand 0.498569 -10.5267
rfingers 7.12502
rthumb 26.0678 -398.758
lclavicle -4.92986e-014 2.38542e-014
lhumerus 319.982 23.2688 -297.023
lradius 24.8513
lwrist -186.406
lhand -27.1365 8.00416
lfingers 7.12502
lthumb -0.551901 37.9832
rfemur -16.8808 -10.2743 25.9047
rtibia 52.9212
rfoot -11.5039 -12.5847
rtoes 2.70814
lfemur 3.81175 4.43769 -13.5404
ltibia 32.36
lfoot -19.2416 1.49549
ltoes -4.5193
297
root 1.78105 17.229 6.58014 169.366 -3.46796 -174.292
lowerback 18.5592 -1.82545 4.22697
upperback 7.11243 -2.88131 1.37095
thorax -2.82324 -1.92944 -0.32332
lowerneck -8.19464 -7.35589 0.610689
upperneck -10.5935 -7.9742 11.8319
head -1.49215 -3.60627 3.61173
rclavicle -3.37437e-014 2.92213e-014
rhumerus -45.6343 -5.60187 -77.8039
rradius 55.736
rwrist -272.518
rhand 0.206368 -10.773
rfingers 7.12502
rthumb 25.788 -399.045
lclavicle -3.37437e-014 2.92213e-014
lhumerus 320.633 23.508 -296.555
lradius 25.103
lwrist -185.334
lhand -26.8018 8.16148
lfingers 7.12502
lthumb -0.228664 38.1411
rfemur -15.7742 -10.1512 25.4752
rtibia 53.5616
rfoot -11.8215 -12.7439
rtoes 3.48908
lfemur 3.27152 4.32696 -13.4351
ltibia 33.0073
lfoot -19.3691 1.74506
ltoes -4.40087
298
root 1.80596 17.2208 6.6569 169.333 -3.2607 -174.277
lowerback 18.4983 -1.83785 4.30141
upperback 7.01448 -2.86553 1.46337
thorax -2.89389 -1.91735 -0.27033
lowerneck -8.1768 -7.23591 0.542874
upperneck -10.3797 -7.88328 11.565
head -1.43829 -3.56761 3.528
rclavicle -5.03174e-014 4.00551e-014
rhumerus -45.5517 -5.30794 -78.0195
rradius 56.4132
rwrist -272.241
rhand -0.0298745 -10.9655
rfingers 7.12502
rthumb 25.5618 -399.27
lclavicle -5.03174e-014 4.00551e-014
lhumerus 321.21 23.8194 -296.109
lradius 25.3842
lwrist -184.21
lhand -26.4323 8.36675
lfingers 7.12502
lthumb 0.128205 38.3465
rfemur -14.5672 -10.0258 24.9529
rtibia 54.0538
rfoot -12.1548 -13.0312
rtoes 4.28559
lfemur 2.78152 4.22227 -13.4046
ltibia 33.5557
lfoot -19.4011 2.00912
ltoes -4.47078
